HIERARCHY
ROOT Hips
{
	OFFSET 0.000000 0.000000 0.000000
	CHANNELS 6 Xposition Yposition Zposition Xrotation Yrotation Zrotation
	JOINT LeftUpLeg_virtual
	{
		OFFSET 0.000000 0.000000 0.000000
		CHANNELS 3 Xrotation Yrotation Zrotation
		JOINT LeftUpLeg
		{
			OFFSET 11.394100 -6.187798 -0.413800
			CHANNELS 3 Xrotation Yrotation Zrotation
			JOINT LeftLeg
			{
				OFFSET 0.430247 -32.302673 3.732800
				CHANNELS 3 Xrotation Yrotation Zrotation
				JOINT LeftFoot
				{
					OFFSET -0.430247 -48.264931 -6.423300
					CHANNELS 3 Xrotation Yrotation Zrotation
					JOINT LeftToeBase
					{
						OFFSET 4.230900 -16.068199 23.438400
						CHANNELS 3 Xrotation Yrotation Zrotation
						JOINT LeftToe_End
						{
							OFFSET 4.510700 0.695400 19.974600
							CHANNELS 3 Xrotation Yrotation Zrotation
							End Site
							{
								OFFSET 0 0 0
							}
						}
					}
				}
			}
		}
	}
	JOINT RightUpLeg_virtual
	{
		OFFSET 0.000000 0.000000 0.000000
		CHANNELS 3 Xrotation Yrotation Zrotation
		JOINT RightUpLeg
		{
			OFFSET -11.333700 -6.187798 -0.413800
			CHANNELS 3 Xrotation Yrotation Zrotation
			JOINT RightLeg
			{
				OFFSET -0.430392 -32.302628 3.733000
				CHANNELS 3 Xrotation Yrotation Zrotation
				JOINT RightFoot
				{
					OFFSET 0.430392 -48.264973 -6.423500
					CHANNELS 3 Xrotation Yrotation Zrotation
					JOINT RightToeBase
					{
						OFFSET -4.230900 -16.068199 23.438400
						CHANNELS 3 Xrotation Yrotation Zrotation
						JOINT RightToe_End
						{
							OFFSET -4.510700 0.695400 19.974600
							CHANNELS 3 Xrotation Yrotation Zrotation
							End Site
							{
								OFFSET 0 0 0
							}
						}
					}
				}
			}
		}
	}
	JOINT Spine_virtual
	{
		OFFSET 0.000000 0.000000 0.000000
		CHANNELS 3 Xrotation Yrotation Zrotation
		JOINT Spine
		{
			OFFSET -0.002400 12.777504 0.315300
			CHANNELS 3 Xrotation Yrotation Zrotation
			JOINT Spine1
			{
				OFFSET -0.002067 5.816869 0.032633
				CHANNELS 3 Xrotation Yrotation Zrotation
				JOINT Spine1_split
				{
					OFFSET -0.002067 5.816869 0.032633
					CHANNELS 3 Xrotation Yrotation Zrotation
					JOINT Spine2
					{
						OFFSET -0.002067 5.816869 0.032633
						CHANNELS 3 Xrotation Yrotation Zrotation
						JOINT Neck_virtual
						{
							OFFSET 0.000000 0.000000 0.000000
							CHANNELS 3 Xrotation Yrotation Zrotation
							JOINT Neck
							{
								OFFSET -0.003700 21.199493 -0.826900
								CHANNELS 3 Xrotation Yrotation Zrotation
								JOINT Head
								{
									OFFSET 0.000000 20.442200 4.834800
									CHANNELS 3 Xrotation Yrotation Zrotation
									JOINT HeadTop_End
									{
										OFFSET 0.000000 34.668396 4.968400
										CHANNELS 3 Xrotation Yrotation Zrotation
										End Site
										{
											OFFSET 0 0 0
										}
									}
								}
							}
						}
						JOINT LeftShoulder_virtual
						{
							OFFSET 0.000000 0.000000 0.000000
							CHANNELS 3 Xrotation Yrotation Zrotation
							JOINT LeftShoulder
							{
								OFFSET 3.288150 8.794197 -1.372250
								CHANNELS 3 Xrotation Yrotation Zrotation
								JOINT LeftShoulder_split
								{
									OFFSET 3.288150 8.794197 -1.372250
									CHANNELS 3 Xrotation Yrotation Zrotation
									JOINT LeftArm
									{
										OFFSET 11.953299 -2.279007 -0.146200
										CHANNELS 3 Xrotation Yrotation Zrotation
										JOINT LeftForeArm
										{
											OFFSET 18.448900 0.000000 0.000000
											CHANNELS 3 Xrotation Yrotation Zrotation
											JOINT LeftHand
											{
												OFFSET 29.527798 0.000000 0.000000
												CHANNELS 3 Xrotation Yrotation Zrotation
												End Site
												{
													OFFSET 0 0 0
												}
											}
										}
									}
								}
							}
						}
						JOINT RightShoulder_virtual
						{
							OFFSET 0.000000 0.000000 0.000000
							CHANNELS 3 Xrotation Yrotation Zrotation
							JOINT RightShoulder
							{
								OFFSET -3.249400 8.794197 -1.372250
								CHANNELS 3 Xrotation Yrotation Zrotation
								JOINT RightShoulder_split
								{
									OFFSET -3.249400 8.794197 -1.372250
									CHANNELS 3 Xrotation Yrotation Zrotation
									JOINT RightArm
									{
										OFFSET -11.953299 -2.279007 -0.146200
										CHANNELS 3 Xrotation Yrotation Zrotation
										JOINT RightForeArm
										{
											OFFSET -18.448900 0.000000 0.000000
											CHANNELS 3 Xrotation Yrotation Zrotation
											JOINT RightHand
											{
												OFFSET -29.527802 0.000000 0.000000
												CHANNELS 3 Xrotation Yrotation Zrotation
												End Site
												{
													OFFSET 0 0 0
												}
											}
										}
									}
								}
							}
						}
					}
				}
			}
		}
	}
}
MOTION
Frames: 10
Frame Time: 0.03333333
0.625892 99.121918 -3.565571 0.000000 0.000000 0.000000 -2.268174 5.115276 1.288315 -12.644255 7.572450 7.923980 24.437208 0.031626 -1.433114 -11.857168 0.588224 -3.385130 -0.420799 0.231031 0.662734 0.000000 0.000000 0.000000 -2.539539 4.642951 0.931876 -7.490119 -3.273343 -4.881553 21.620861 -9.357204 1.130346 -7.696821 -19.308813 2.269305 -2.599160 -0.127228 -0.861608 0.000000 0.000000 0.000000 -1.851216 3.497612 0.664767 -1.249043 -1.723613 -2.538829 0.857436 -0.187817 1.921265 1.566844 -1.184903 -0.130391 0.000000 0.000000 0.000000 0.204414 -0.113958 1.484531 7.449697 1.606347 -0.920733 -2.961464 0.416451 2.108040 0.000000 0.000000 0.000000 0.706593 0.287473 1.069372 6.722818 -24.893055 -5.945934 -0.631275 -2.219503 -1.646727 7.500164 4.938516 -79.678193 -2.317310 -16.381927 1.680731 0.000000 0.000000 0.000000 0.605528 0.239035 2.052420 1.954506 -5.946230 9.250520 0.853943 5.584218 -0.897310 6.779348 17.788079 73.156920 1.469708 15.020918 -0.645269 0.000000 0.000000 0.000000 
0.508875 99.095566 -3.684654 0.000000 0.000000 0.000000 -2.235024 5.244729 1.293868 -12.629961 7.713976 7.942877 24.428305 -0.008219 -1.485200 -11.918075 0.544797 -3.323985 -0.396533 0.227890 0.685663 0.000000 0.000000 0.000000 -2.490704 4.718395 0.938438 -7.532800 -3.336709 -4.835330 21.704347 -9.444155 1.151071 -7.766165 -19.292636 2.130563 -2.488893 -0.100695 -0.890859 0.000000 0.000000 0.000000 -1.823587 3.338479 0.772533 -1.304155 -1.723515 -2.581026 0.807187 -0.213009 1.885464 1.517833 -1.172934 -0.123163 0.000000 0.000000 0.000000 0.201766 -0.108611 1.446896 7.562391 1.649065 -1.076318 -2.917152 0.552401 1.972274 0.000000 0.000000 0.000000 0.683441 0.269934 1.041904 6.773854 -24.893827 -5.979775 -0.590847 -2.014995 -1.872688 7.384696 4.665340 -79.818943 -2.336186 -16.602310 1.657526 0.000000 0.000000 0.000000 0.574667 0.229621 2.066581 1.924447 -5.956144 9.232180 0.765947 5.898993 -0.958283 6.979997 17.669797 73.110830 1.523925 14.985703 -0.714101 0.000000 0.000000 0.000000 
0.378710 99.044075 -3.722927 0.000000 0.000000 0.000000 -2.258900 5.350841 1.284752 -12.585432 7.857122 7.986056 24.364299 -0.028802 -1.493015 -11.924649 0.541199 -3.281647 -0.402303 0.225528 0.685154 0.000000 0.000000 0.000000 -2.417754 4.759470 0.938334 -7.612259 -3.265183 -4.830032 21.869999 -9.480531 1.201393 -7.516507 -19.244138 2.193636 -2.722432 -0.058159 -0.973117 0.000000 0.000000 0.000000 -1.830018 3.355247 0.867792 -1.333119 -1.696261 -2.604655 0.716257 -0.240080 1.840272 1.437830 -1.055529 -0.032660 0.000000 0.000000 0.000000 0.188190 -0.109780 1.422486 7.585766 1.690647 -1.297759 -2.926379 0.522092 1.879194 0.000000 0.000000 0.000000 0.635354 0.265944 1.030102 6.794928 -24.960844 -6.075140 -0.640775 -1.834879 -2.101948 7.503496 4.004137 -79.736250 -2.197746 -16.792283 1.648759 0.000000 0.000000 0.000000 0.543363 0.213109 2.051036 1.862332 -5.902334 9.289941 0.856701 6.100448 -1.092521 6.956265 17.684997 72.880372 1.525629 15.038579 -0.704173 0.000000 0.000000 0.000000 
0.267787 98.986862 -3.658710 0.000000 0.000000 0.000000 -2.325218 5.380942 1.251399 -12.519639 7.982033 8.051486 24.239870 0.001917 -1.450281 -11.878797 0.564375 -3.257149 -0.427383 0.225855 0.660309 0.000000 0.000000 0.000000 -2.313321 4.810425 0.919896 -7.672810 -3.108351 -4.838894 22.045709 -9.487520 1.258779 -7.134218 -19.170992 2.329989 -3.153117 -0.000301 -1.071202 0.000000 0.000000 0.000000 -1.828855 3.517261 0.919485 -1.316250 -1.663026 -2.607113 0.594998 -0.273773 1.794489 1.416713 -1.015786 0.131998 0.000000 0.000000 0.000000 0.161675 -0.116971 1.419430 7.543579 1.761603 -1.528996 -2.960915 0.334638 1.848380 0.000000 0.000000 0.000000 0.554732 0.267573 1.041177 6.791516 -25.079206 -6.172422 -0.730395 -1.637057 -2.348933 7.805349 3.135023 -79.392596 -1.943517 -16.946560 1.615864 0.000000 0.000000 0.000000 0.492568 0.180277 2.011480 1.774365 -5.787003 9.451121 1.088913 6.104720 -1.171603 6.767916 17.799584 72.552195 1.475362 15.263873 -0.629397 0.000000 0.000000 0.000000 
0.196581 98.946503 -3.522392 0.000000 0.000000 0.000000 -2.366262 5.354784 1.183341 -12.446708 8.035428 8.136562 24.078575 0.094597 -1.346225 -11.802894 0.585049 -3.252161 -0.468851 0.229278 0.626565 0.000000 0.000000 0.000000 -2.199556 4.874443 0.869152 -7.719766 -2.969790 -4.839147 22.217794 -9.522907 1.315373 -6.796435 -19.102296 2.390464 -3.498521 0.071438 -1.154626 0.000000 0.000000 0.000000 -1.787928 3.712991 0.906926 -1.233142 -1.639309 -2.580205 0.457162 -0.316903 1.756429 1.464111 -1.057027 0.225328 0.000000 0.000000 0.000000 0.110968 -0.134463 1.438591 7.455753 1.853599 -1.708202 -3.019818 0.043399 1.878392 0.000000 0.000000 0.000000 0.451232 0.269067 1.074874 6.789432 -25.223655 -6.165822 -0.746750 -1.462331 -2.587223 8.230970 2.215419 -78.814741 -1.660276 -17.155465 1.517506 0.000000 0.000000 0.000000 0.407632 0.125637 1.957404 1.667283 -5.630850 9.688953 1.397303 5.953864 -1.208004 6.471184 17.993654 72.209641 1.390605 15.799479 -0.489927 0.000000 0.000000 0.000000 
0.168325 98.922531 -3.371574 0.000000 0.000000 0.000000 -2.348939 5.303578 1.078206 -12.364919 7.951714 8.215986 23.927529 0.256816 -1.168222 -11.746789 0.574907 -3.255754 -0.508892 0.234238 0.597642 0.000000 0.000000 0.000000 -2.102878 4.924835 0.788237 -7.799190 -2.939592 -4.826550 22.457285 -9.590750 1.382099 -6.561709 -19.031841 2.394389 -3.679560 0.147881 -1.212888 0.000000 0.000000 0.000000 -1.706151 3.855815 0.821546 -1.058747 -1.634416 -2.523526 0.316620 -0.372404 1.728911 1.597739 -1.110222 0.302954 0.000000 0.000000 0.000000 0.023617 -0.161456 1.471035 7.341417 1.967514 -1.810429 -3.071079 -0.310618 1.969720 0.000000 0.000000 0.000000 0.324876 0.267398 1.126414 6.809612 -25.371591 -5.989669 -0.624782 -1.338899 -2.775364 8.645023 1.384278 -78.109306 -1.402303 -17.396174 1.336716 0.000000 0.000000 0.000000 0.284983 0.057653 1.896878 1.552218 -5.456265 9.943810 1.790666 5.716286 -1.173012 6.108730 18.231751 71.932629 1.301265 16.640709 -0.300474 0.000000 0.000000 0.000000 
0.200503 98.894760 -3.252560 0.000000 0.000000 0.000000 -2.278181 5.235396 0.951803 -12.257650 7.686686 8.243845 23.850221 0.501999 -0.922152 -11.779883 0.518601 -3.270275 -0.540354 0.243958 0.570234 0.000000 0.000000 0.000000 -2.062032 4.914403 0.686289 -7.953601 -3.085599 -4.818195 22.860010 -9.633701 1.456080 -6.429559 -18.903590 2.469646 -3.896557 0.224468 -1.283530 0.000000 0.000000 0.000000 -1.600993 3.863352 0.683361 -0.768256 -1.654961 -2.441841 0.191258 -0.422892 1.716592 1.805790 -1.063390 0.270121 0.000000 0.000000 0.000000 -0.092966 -0.189317 1.505806 7.205185 2.093331 -1.821447 -3.074613 -0.687614 2.093786 0.000000 0.000000 0.000000 0.190777 0.266228 1.188128 6.860052 -25.460217 -5.633204 -0.375886 -1.274018 -2.914989 8.906253 0.696315 -77.440712 -1.181472 -17.728405 1.093318 0.000000 0.000000 0.000000 0.150825 -0.006252 1.833556 1.431863 -5.280952 10.165188 2.225910 5.466821 -1.111300 5.659341 18.422115 71.701291 1.233178 17.578965 -0.092087 0.000000 0.000000 0.000000 
0.277396 98.826180 -3.177254 0.000000 0.000000 0.000000 -2.190094 5.096341 0.841131 -12.129198 7.221232 8.187923 23.871204 0.840978 -0.618099 -11.913802 0.422953 -3.312594 -0.575641 0.258833 0.539613 0.000000 0.000000 0.000000 -2.113445 4.811402 0.596596 -8.185241 -3.399082 -4.828347 23.484099 -9.626027 1.525110 -6.466303 -18.677869 2.660764 -4.239956 0.301475 -1.391384 0.000000 0.000000 0.000000 -1.554666 3.677002 0.534643 -0.346718 -1.713045 -2.350799 0.089929 -0.452068 1.712591 1.968183 -0.904047 0.113097 0.000000 0.000000 0.000000 -0.239816 -0.218762 1.529983 7.067394 2.187416 -1.749566 -3.000583 -1.053940 2.219503 0.000000 0.000000 0.000000 0.068768 0.264801 1.239551 6.935036 -25.468495 -5.127224 -0.044252 -1.205670 -2.985839 8.884907 0.205681 -76.963958 -0.995915 -18.164835 0.828348 0.000000 0.000000 0.000000 0.043290 -0.043050 1.777082 1.313096 -5.097151 10.279479 2.532522 5.174689 -1.017695 5.054206 18.478802 71.403604 1.184742 18.358085 0.124733 0.000000 0.000000 0.000000 
0.379290 98.674408 -3.164284 0.000000 0.000000 0.000000 -2.131877 4.783503 0.798320 -11.984662 6.645705 8.032342 24.002847 1.296578 -0.287382 -12.150457 0.290560 -3.396988 -0.610801 0.274792 0.499121 0.000000 0.000000 0.000000 -2.240210 4.563347 0.555253 -8.497303 -3.846847 -4.875245 24.317044 -9.597943 1.579034 -6.769736 -18.327868 2.864039 -4.565583 0.379630 -1.514387 0.000000 0.000000 0.000000 -1.640224 3.290873 0.418107 0.204437 -1.836307 -2.288122 0.022329 -0.458412 1.704923 2.005417 -0.671807 -0.003465 0.000000 0.000000 0.000000 -0.387470 -0.246373 1.537372 6.963120 2.237941 -1.628323 -2.845741 -1.377342 2.320850 0.000000 0.000000 0.000000 -0.031110 0.259180 1.260815 7.016586 -25.400630 -4.560445 0.368481 -1.040474 -2.991486 8.541653 0.042547 -76.746082 -0.797836 -18.715389 0.590838 0.000000 0.000000 0.000000 -0.013544 -0.045889 1.728625 1.194950 -4.886206 10.240146 2.630898 4.915146 -0.785107 4.229747 18.251527 70.724218 1.153517 18.658132 0.333677 0.000000 0.000000 0.000000 
0.482611 98.459740 -3.182007 0.000000 0.000000 0.000000 -2.112713 4.181876 0.843663 -11.809389 6.076795 7.800039 24.251492 1.868065 0.035917 -12.436490 0.129440 -3.550274 -0.649875 0.288817 0.457402 0.000000 0.000000 0.000000 -2.414133 4.127161 0.584687 -8.912431 -4.375860 -4.977927 25.301801 -9.582965 1.609832 -7.378082 -17.833774 2.969832 -4.765220 0.455316 -1.615920 0.000000 0.000000 0.000000 -1.881478 2.679755 0.356257 0.855139 -2.053313 -2.277363 -0.005666 -0.448829 1.686725 1.900541 -0.399087 -0.149826 0.000000 0.000000 0.000000 -0.508884 -0.279833 1.527762 6.940919 2.282868 -1.500512 -2.636960 -1.614537 2.386980 0.000000 0.000000 0.000000 -0.086518 0.240431 1.245482 7.104197 -25.298466 -4.001001 0.783518 -0.800646 -2.975185 7.980270 0.336306 -76.729088 -0.620652 -19.465284 0.409348 0.000000 0.000000 0.000000 0.002503 -0.030115 1.677412 1.064020 -4.629331 10.018418 2.563036 4.712627 -0.491749 3.155122 17.663603 69.244506 1.139008 18.390317 0.532398 0.000000 0.000000 0.000000 
